<?xml version="1.0" encoding="UTF-8"?>
<svg xmlns="http://www.w3.org/2000/svg" xmlns:xlink="http://www.w3.org/1999/xlink" width="872px" height="874px" viewBox="0 0 436 437" version="1.1">
<g id="surface1">
<path style=" stroke:none;fill-rule:nonzero;fill:rgb(99.607843%,99.607843%,99.607843%);fill-opacity:1;" d="M 215.21875 1.875 C 216.105469 1.875 216.105469 1.875 217.007812 1.875 C 226.265625 1.882812 235.320312 2.1875 244.5 3.5 C 245.105469 3.582031 245.710938 3.667969 246.332031 3.75 C 267.507812 6.734375 288.113281 13 307.5 22 C 307.976562 22.21875 308.453125 22.441406 308.945312 22.667969 C 319.8125 27.753906 330.292969 33.953125 340 41 C 340.375 41.269531 340.75 41.539062 341.140625 41.816406 C 346.480469 45.640625 351.601562 49.621094 356.5 54 C 356.949219 54.402344 357.402344 54.800781 357.867188 55.214844 C 358.691406 55.953125 359.511719 56.695312 360.328125 57.4375 C 361.097656 58.136719 361.875 58.828125 362.65625 59.515625 C 367.917969 64.15625 372.988281 69.117188 377.5 74.5 C 377.953125 75.023438 378.40625 75.542969 378.863281 76.066406 C 382.230469 79.933594 385.441406 83.886719 388.5 88 C 388.746094 88.328125 388.992188 88.652344 389.242188 88.992188 C 397.316406 99.785156 404.144531 111.394531 410.019531 123.515625 C 410.496094 124.488281 410.976562 125.460938 411.460938 126.429688 C 422.746094 149.410156 429.183594 175.488281 431 201 C 431.027344 201.386719 431.054688 201.773438 431.085938 202.167969 C 434.652344 253.425781 419.96875 305.363281 389 346.5 C 388.664062 346.949219 388.664062 346.949219 388.324219 347.40625 C 383.785156 353.476562 378.867188 359.183594 373.710938 364.730469 C 372.976562 365.523438 372.253906 366.324219 371.53125 367.128906 C 368.199219 370.8125 364.703125 374.191406 361 377.5 C 360.554688 377.914062 360.105469 378.332031 359.648438 378.761719 C 356.355469 381.816406 352.910156 384.605469 349.351562 387.339844 C 348.574219 387.945312 347.800781 388.558594 347.03125 389.179688 C 335.621094 398.234375 322.964844 405.449219 310 412 C 309.59375 412.207031 309.1875 412.410156 308.769531 412.625 C 285.664062 424.226562 259.300781 431.179688 233.5 433 C 232.941406 433.042969 232.382812 433.085938 231.804688 433.128906 C 226.472656 433.503906 221.160156 433.601562 215.8125 433.59375 C 215.15625 433.59375 215.15625 433.59375 214.484375 433.59375 C 164.273438 433.476562 115.539062 415.613281 61.667969 369.261719 C 60.902344 368.496094 60.136719 367.738281 59.367188 366.980469 C 56.550781 364.179688 53.933594 361.316406 51.464844 358.195312 C 50.546875 357.058594 49.589844 355.980469 48.59375 354.90625 C 39.480469 344.6875 32.011719 332.496094 25.5 320.5 C 25.160156 319.882812 25.160156 319.882812 24.8125 319.257812 C 12.585938 297.128906 5.105469 272.460938 1.5 247.5 C 1.378906 246.707031 1.378906 246.707031 1.253906 245.894531 C -1.726562 225.988281 -1.316406 204.351562 2 184.5 C 2.0625 184.132812 2.121094 183.765625 2.183594 183.386719 C 3.925781 172.882812 6.308594 162.664062 9.5 152.5 C 9.644531 152.03125 9.789062 151.5625 9.9375 151.078125 C 19.203125 121.085938 35.921875 94.070312 57 71 C 57.453125 70.5 57.90625 70 58.359375 69.496094 C 61.878906 65.625 65.4375 61.859375 69.414062 58.449219 C 70.652344 57.367188 71.855469 56.246094 73.0625 55.125 C 75.96875 52.476562 79.023438 50.058594 82.140625 47.664062 C 82.941406 47.046875 83.730469 46.417969 84.523438 45.789062 C 116.042969 20.871094 155.699219 6.289062 195.5 2.5 C 195.984375 2.453125 196.472656 2.402344 196.972656 2.355469 C 203.042969 1.835938 209.132812 1.878906 215.21875 1.875 Z M 215.21875 1.875 "/>
<path style=" stroke:none;fill-rule:nonzero;fill:rgb(4.313726%,50.980395%,77.64706%);fill-opacity:1;" d="M 166 41 C 166.566406 41.480469 167.128906 41.960938 167.695312 42.441406 C 168.164062 42.84375 168.164062 42.84375 168.648438 43.253906 C 169.546875 44.039062 170.332031 44.859375 171.09375 45.78125 C 172.683594 47.648438 174.332031 49.453125 176 51.25 C 177.882812 53.28125 179.734375 55.328125 181.546875 57.421875 C 182.839844 58.886719 184.171875 60.316406 185.5 61.75 C 187.382812 63.78125 189.234375 65.828125 191.046875 67.921875 C 192.339844 69.386719 193.671875 70.816406 195 72.25 C 196.605469 73.980469 198.207031 75.714844 199.75 77.5 C 201.53125 79.558594 203.378906 81.546875 205.226562 83.539062 C 206.75 85.183594 208.257812 86.832031 209.75 88.5 C 214.164062 93.421875 218.6875 98.246094 223.203125 103.074219 C 224.429688 104.386719 225.652344 105.703125 226.875 107.019531 C 227.183594 107.351562 227.492188 107.683594 227.8125 108.023438 C 228.394531 108.652344 228.976562 109.277344 229.558594 109.90625 C 230.925781 111.375 232.308594 112.8125 233.734375 114.21875 C 234.949219 115.421875 236.089844 116.65625 237.203125 117.953125 C 239.113281 120.164062 241.167969 122.203125 243.25 124.25 C 243.976562 124.960938 244.699219 125.675781 245.421875 126.390625 C 245.738281 126.699219 246.054688 127.011719 246.378906 127.328125 C 247.300781 128.292969 248.171875 129.273438 249.039062 130.285156 C 251.386719 132.984375 253.921875 135.492188 256.453125 138.015625 C 256.976562 138.542969 257.5 139.066406 258.023438 139.589844 C 259.113281 140.679688 260.207031 141.773438 261.296875 142.863281 C 262.6875 144.25 264.078125 145.640625 265.464844 147.03125 C 266.542969 148.113281 267.625 149.191406 268.703125 150.269531 C 269.214844 150.78125 269.726562 151.296875 270.238281 151.808594 C 272.816406 154.390625 275.40625 156.929688 278.1875 159.296875 C 279.355469 160.304688 280.425781 161.394531 281.5 162.5 C 283.246094 164.265625 285.023438 165.9375 286.90625 167.546875 C 288.003906 168.503906 289.070312 169.484375 290.136719 170.472656 C 292.28125 172.464844 294.449219 174.402344 296.71875 176.25 C 297.34375 176.769531 297.34375 176.769531 297.980469 177.300781 C 299.488281 178.53125 299.488281 178.53125 301.171875 179.585938 C 303.703125 181.300781 305.964844 182.953125 306.570312 186.09375 C 306.832031 188.601562 306.734375 191.097656 306.632812 193.613281 C 306.621094 194.539062 306.613281 195.460938 306.605469 196.382812 C 306.582031 198.796875 306.519531 201.203125 306.445312 203.617188 C 306.378906 206.082031 306.351562 208.550781 306.316406 211.015625 C 306.246094 215.84375 306.136719 220.671875 306 225.5 C 302.304688 222.382812 302.304688 222.382812 300.765625 220.71875 C 300.472656 220.40625 300.179688 220.09375 299.882812 219.773438 C 299.429688 219.28125 299.429688 219.28125 298.96875 218.78125 C 298.648438 218.433594 298.324219 218.089844 297.996094 217.734375 C 296.996094 216.65625 295.996094 215.578125 295 214.5 C 293.761719 213.164062 292.523438 211.832031 291.28125 210.5 C 290.988281 210.1875 290.699219 209.871094 290.398438 209.550781 C 288.609375 207.636719 286.785156 205.769531 284.917969 203.933594 C 284.085938 203.085938 283.324219 202.21875 282.5625 201.308594 C 279.792969 198.128906 276.746094 195.210938 273.75 192.25 C 266.871094 185.449219 266.871094 185.449219 264.242188 182.359375 C 262.992188 180.910156 261.640625 179.566406 260.28125 178.21875 C 260.019531 177.957031 259.761719 177.695312 259.492188 177.421875 C 258.085938 176.019531 256.648438 174.683594 255.140625 173.390625 C 252.199219 170.847656 249.511719 168.039062 246.78125 165.273438 C 244.242188 162.699219 241.691406 160.167969 238.941406 157.816406 C 237.273438 156.371094 235.691406 154.832031 234.09375 153.3125 C 231.390625 150.757812 228.652344 148.328125 225.742188 146.011719 C 224.511719 145.007812 223.351562 143.957031 222.1875 142.875 C 217.261719 138.40625 211.835938 134.492188 206.34375 130.75 C 205.996094 130.511719 205.652344 130.269531 205.296875 130.023438 C 203.230469 128.644531 201.160156 127.605469 198.859375 126.667969 C 198.324219 126.445312 197.785156 126.226562 197.234375 126 C 196.828125 125.835938 196.417969 125.671875 196 125.5 C 195.925781 129.375 195.886719 133.246094 195.882812 137.121094 C 195.882812 138.917969 195.871094 140.71875 195.832031 142.515625 C 195.230469 151.390625 195.230469 151.390625 198.589844 159.125 C 199.8125 160.222656 201.109375 161.125 202.5 162 C 203.199219 162.59375 203.886719 163.195312 204.5625 163.8125 C 204.875 164.078125 205.183594 164.339844 205.503906 164.613281 C 207.171875 166.097656 208.710938 167.707031 210.28125 169.296875 C 211.636719 170.632812 213.054688 171.871094 214.5 173.109375 C 216.03125 174.472656 217.449219 175.945312 218.886719 177.402344 C 220.222656 178.71875 221.625 179.9375 223.050781 181.160156 C 224.292969 182.261719 225.445312 183.441406 226.609375 184.625 C 227.542969 185.542969 228.507812 186.398438 229.5 187.25 C 231.097656 188.625 232.585938 190.074219 234.0625 191.578125 C 234.96875 192.46875 235.902344 193.304688 236.867188 194.132812 C 238.917969 195.914062 240.902344 197.757812 242.875 199.625 C 246.226562 202.777344 249.601562 205.898438 253 209 C 253.507812 209.46875 254.019531 209.933594 254.527344 210.402344 C 257.242188 212.898438 259.96875 215.378906 262.714844 217.839844 C 264.171875 219.15625 265.617188 220.484375 267.0625 221.8125 C 269.019531 223.613281 270.996094 225.386719 273.003906 227.128906 C 274.179688 228.15625 275.339844 229.203125 276.5 230.25 C 280.015625 233.417969 283.589844 236.511719 287.183594 239.585938 C 289.09375 241.21875 290.992188 242.863281 292.886719 244.511719 C 295.8125 247.054688 298.753906 249.5625 301.765625 252 C 302.175781 252.328125 302.582031 252.660156 303 253 C 303.511719 253.332031 304.027344 253.660156 304.554688 254.003906 C 305.535156 254.828125 305.945312 255.292969 306.273438 256.542969 C 306.371094 257.859375 306.371094 259.144531 306.339844 260.464844 C 306.339844 260.964844 306.339844 261.460938 306.34375 261.972656 C 306.339844 263.617188 306.316406 265.257812 306.292969 266.898438 C 306.289062 268.039062 306.28125 269.179688 306.28125 270.320312 C 306.269531 273.316406 306.238281 276.316406 306.207031 279.3125 C 306.175781 282.375 306.160156 285.433594 306.148438 288.492188 C 306.113281 294.496094 306.0625 300.496094 306 306.5 C 304.238281 305.121094 302.824219 303.785156 301.4375 302.03125 C 301.046875 301.546875 300.65625 301.058594 300.253906 300.558594 C 300.050781 300.304688 299.847656 300.046875 299.636719 299.785156 C 298.558594 298.453125 297.453125 297.148438 296.34375 295.84375 C 296.113281 295.574219 295.882812 295.300781 295.648438 295.023438 C 293.449219 292.433594 291.238281 289.851562 289.023438 287.273438 C 287.996094 286.078125 286.96875 284.878906 285.945312 283.679688 C 283.335938 280.621094 280.707031 277.589844 278.007812 274.613281 C 277.078125 273.585938 276.160156 272.546875 275.25 271.5 C 273.550781 269.550781 271.820312 267.632812 270.089844 265.714844 C 269.152344 264.671875 268.230469 263.621094 267.3125 262.5625 C 265.160156 260.089844 262.933594 257.683594 260.710938 255.273438 C 259.597656 254.058594 258.484375 252.84375 257.375 251.625 C 256.417969 250.582031 255.460938 249.539062 254.5 248.5 C 254.121094 248.089844 254.121094 248.089844 253.738281 247.671875 C 248.519531 242.015625 243.128906 236.550781 237.683594 231.117188 C 236.742188 230.175781 235.800781 229.238281 234.863281 228.296875 C 233.484375 226.914062 232.101562 225.535156 230.71875 224.152344 C 230.304688 223.738281 229.890625 223.320312 229.460938 222.894531 C 227.3125 220.753906 225.132812 218.6875 222.828125 216.710938 C 221.757812 215.792969 220.726562 214.832031 219.6875 213.875 C 212.582031 207.476562 205.085938 202.292969 196.5 198 C 196.5 267.136719 196.5 336.269531 196.5 407.5 C 183.210938 405.1875 183.210938 405.1875 177.65625 403.96875 C 177.089844 403.847656 176.523438 403.726562 175.941406 403.601562 C 173.246094 403.015625 170.566406 402.394531 167.886719 401.722656 C 167.347656 401.589844 166.808594 401.453125 166.25 401.3125 C 165.632812 401.160156 165.632812 401.160156 165 401 C 164.988281 362.199219 165.019531 323.398438 165.085938 284.601562 C 165.09375 281.082031 165.097656 277.5625 165.105469 274.046875 C 165.125 261.867188 165.148438 249.6875 165.167969 237.507812 C 165.171875 236.757812 165.171875 236.007812 165.171875 235.257812 C 165.175781 234.886719 165.175781 234.511719 165.175781 234.128906 C 165.179688 232.246094 165.183594 230.367188 165.1875 228.484375 C 165.1875 228.109375 165.1875 227.738281 165.1875 227.351562 C 165.210938 215.203125 165.230469 203.050781 165.25 190.898438 C 165.269531 177.871094 165.292969 164.839844 165.320312 151.808594 C 165.320312 150.367188 165.324219 148.929688 165.328125 147.488281 C 165.328125 147.136719 165.328125 146.78125 165.328125 146.417969 C 165.335938 141.519531 165.34375 136.625 165.351562 131.726562 C 165.398438 101.484375 165.488281 71.242188 166 41 Z M 166 41 "/>
</g>
</svg>
